/vscmnt/brussel_pixiu_data/_data_brussel/112/vsc11236/PredSimResults/SUBJ06mtu3D/worker9.mot
version=1
nRows=4
nColumns=50
inDegrees=yes
endheader
                time	         pelvis_tilt	         pelvis_list	     pelvis_rotation	           pelvis_tx	           pelvis_ty	           pelvis_tz	       hip_flexion_r	     hip_adduction_r	      hip_rotation_r	        knee_angle_r	       ankle_angle_r	         mtp_angle_r	       hip_flexion_l	     hip_adduction_l	      hip_rotation_l	        knee_angle_l	       ankle_angle_l	         mtp_angle_l	    lumbar_extension	      lumbar_bending	     lumbar_rotation	 ercspn_r/activation	 intobl_r/activation	 extobl_r/activation	    abd_r/activation	    add_r/activation	hamstrings_r/activation	bifemsh_r/activation	glut_max_r/activation	iliopsoas_r/activation	rect_fem_r/activation	  vasti_r/activation	gastroc_r/activation	 soleus_r/activation	tib_ant_r/activation	 ercspn_l/activation	 intobl_l/activation	 extobl_l/activation	    abd_l/activation	    add_l/activation	hamstrings_l/activation	bifemsh_l/activation	glut_max_l/activation	iliopsoas_l/activation	rect_fem_l/activation	  vasti_l/activation	gastroc_l/activation	 soleus_l/activation	tib_ant_l/activation	
          1.24239019	         -4.85729484	          0.27752493	          2.12141213	          1.39147701	          0.92980275	         -0.01023915	         32.67430623	         -3.00198237	         -4.18416687	        -11.01143679	         -0.99967016	          0.22186595	        -11.74411276	         -0.85414585	        -10.27763445	        -11.14386315	          7.63885117	         34.15277575	         -7.62249761	         -1.17519591	         -8.59391346	          0.22230076	          0.15012558	          0.00999999	          0.00999999	          0.31972530	          0.11658299	          0.17973999	          0.03544662	          0.11547782	          0.01457004	          0.00999999	          0.01207065	          0.00999999	          0.49985562	          0.09764069	          0.00999999	          0.00999999	          0.08706262	          0.01000001	          0.01145704	          0.16978533	          0.02316648	          0.64084158	          0.03066668	          0.00999999	          0.23913507	          0.38136097	          0.02019937	
          1.25481409	         -4.98297024	          0.38982433	          2.13269062	          1.40836350	          0.92802340	         -0.00858614	         32.86439319	         -2.87195270	         -4.36288578	        -12.66583537	         -1.25706884	          0.23048960	        -12.09178455	         -0.96861325	        -10.69959330	        -12.08410086	          6.51464540	         36.04093358	         -7.26812106	         -0.92331123	         -9.14568435	          0.21238478	          0.12437240	          0.00999999	          0.00999999	          0.45740466	          0.11423327	          0.14890663	          0.12167052	          0.09566827	          0.01207064	          0.00999999	          0.01000001	          0.01654333	          0.50807375	          0.14969421	          0.00999999	          0.00999999	          0.07212753	          0.01000001	          0.01000002	          0.14065964	          0.02122863	          0.63254303	          0.02540599	          0.01323473	          0.20420881	          0.35915399	          0.01673429	
          1.26723799	         -5.07729207	          0.44714384	          2.14870115	          1.42578459	          0.92643667	         -0.00691175	         32.78546429	         -2.79482043	         -4.17342107	        -14.28949564	         -1.47923445	          0.19955316	        -12.30196681	         -1.19336024	        -11.08648941	        -13.37392696	          5.27550735	         37.95940790	         -6.88178581	         -0.59750260	         -9.65277018	          0.17595140	          0.10303704	          0.00999999	          0.01000411	          0.37893953	          0.11681442	          0.12336256	          0.14797380	          0.07925693	          0.00999999	          0.00999999	          0.01282726	          0.01370542	          0.56166334	          0.13913122	          0.00999999	          0.00999999	          0.05975447	          0.01000004	          0.01457007	          0.11653030	          0.01758698	          0.61829963	          0.02104774	          0.01096439	          0.16917797	          0.33057932	          0.01386362	
          1.27966190	         -5.14424624	          0.44328369	          2.14562140	          1.44347235	          0.92509485	         -0.00510621	         32.55215380	         -2.69131295	         -4.13657089	        -15.71692060	         -1.77017853	          0.18900783	        -12.28397102	         -1.54976260	        -11.46241106	        -15.14314900	          3.91701933	         39.88393492	         -6.49479251	         -0.20650847	        -10.08986745	          0.15734950	          0.08536163	          0.00999999	          0.03410374	          0.32101017	          0.11596650	          0.10220043	          0.15825407	          0.06566086	          0.00999999	          0.04071120	          0.01062682	          0.01135433	          0.63338606	          0.14357164	          0.00999999	          0.00999999	          0.04950393	          0.01000000	          0.01207069	          0.09654021	          0.01457003	          0.58896302	          0.01743712	          0.00999999	          0.14015647	          0.29590487	          0.01148539	
